<mxfile host="app.diagrams.net" modified="2024-03-20T16:08:16.077Z" agent="Mozilla/5.0 (Windows NT 10.0; Win64; x64; rv:124.0) Gecko/20100101 Firefox/124.0" etag="MVFEVT5j-4rrGuaWL7Vz" version="24.0.7" type="github">
  <diagram name="PÃ¡gina-1" id="lyMBnRNk6s1UJv5n6M9Y">
    <mxGraphModel dx="1033" dy="556" grid="1" gridSize="10" guides="1" tooltips="1" connect="1" arrows="1" fold="1" page="1" pageScale="1" pageWidth="827" pageHeight="1169" math="0" shadow="0">
      <root>
        <mxCell id="0" />
        <mxCell id="1" parent="0" />
        <mxCell id="ASPx3OWDytFwxY4XE56K-14" value="USUARIO" style="whiteSpace=wrap;html=1;align=center;" parent="1" vertex="1">
          <mxGeometry x="80" y="260" width="100" height="40" as="geometry" />
        </mxCell>
        <mxCell id="ASPx3OWDytFwxY4XE56K-15" value="nombre" style="ellipse;whiteSpace=wrap;html=1;align=center;" parent="1" vertex="1">
          <mxGeometry x="10" y="320" width="100" height="40" as="geometry" />
        </mxCell>
        <mxCell id="ASPx3OWDytFwxY4XE56K-16" value="Compuesto por" style="shape=rhombus;perimeter=rhombusPerimeter;whiteSpace=wrap;html=1;align=center;" parent="1" vertex="1">
          <mxGeometry x="390" y="130" width="120" height="60" as="geometry" />
        </mxCell>
        <mxCell id="ASPx3OWDytFwxY4XE56K-22" value="id_usuario" style="ellipse;whiteSpace=wrap;html=1;align=center;fontStyle=4;" parent="1" vertex="1">
          <mxGeometry x="10" y="200" width="100" height="40" as="geometry" />
        </mxCell>
        <mxCell id="ASPx3OWDytFwxY4XE56K-23" value="id_producto" style="ellipse;whiteSpace=wrap;html=1;align=center;fontStyle=4;" parent="1" vertex="1">
          <mxGeometry x="570" y="20" width="100" height="40" as="geometry" />
        </mxCell>
        <mxCell id="ASPx3OWDytFwxY4XE56K-25" value="PEDIDO" style="whiteSpace=wrap;html=1;align=center;" parent="1" vertex="1">
          <mxGeometry x="400" y="260" width="100" height="40" as="geometry" />
        </mxCell>
        <mxCell id="ASPx3OWDytFwxY4XE56K-26" value="Realiza" style="shape=rhombus;perimeter=rhombusPerimeter;whiteSpace=wrap;html=1;align=center;" parent="1" vertex="1">
          <mxGeometry x="240" y="250" width="120" height="60" as="geometry" />
        </mxCell>
        <mxCell id="ASPx3OWDytFwxY4XE56K-29" value="PRODUCTO" style="whiteSpace=wrap;html=1;align=center;" parent="1" vertex="1">
          <mxGeometry x="580" y="140" width="100" height="40" as="geometry" />
        </mxCell>
        <mxCell id="ASPx3OWDytFwxY4XE56K-31" value="id_pedido" style="ellipse;whiteSpace=wrap;html=1;align=center;fontStyle=4;" parent="1" vertex="1">
          <mxGeometry x="430" y="330" width="100" height="40" as="geometry" />
        </mxCell>
        <mxCell id="ASPx3OWDytFwxY4XE56K-32" value="&lt;div&gt;&lt;br&gt;&lt;/div&gt;&lt;div&gt;password&lt;br&gt;&lt;/div&gt;" style="ellipse;whiteSpace=wrap;html=1;align=center;" parent="1" vertex="1">
          <mxGeometry x="170" y="320" width="100" height="40" as="geometry" />
        </mxCell>
        <mxCell id="ASPx3OWDytFwxY4XE56K-33" value="stock" style="ellipse;whiteSpace=wrap;html=1;align=center;" parent="1" vertex="1">
          <mxGeometry x="670" y="50" width="100" height="40" as="geometry" />
        </mxCell>
        <mxCell id="ASPx3OWDytFwxY4XE56K-35" value="rol" style="ellipse;whiteSpace=wrap;html=1;align=center;" parent="1" vertex="1">
          <mxGeometry x="100" y="150" width="100" height="40" as="geometry" />
        </mxCell>
        <mxCell id="ASPx3OWDytFwxY4XE56K-42" value="precio" style="ellipse;whiteSpace=wrap;html=1;align=center;" parent="1" vertex="1">
          <mxGeometry x="480" y="50" width="100" height="40" as="geometry" />
        </mxCell>
        <mxCell id="ASPx3OWDytFwxY4XE56K-53" value="" style="endArrow=none;html=1;rounded=0;" parent="1" source="ASPx3OWDytFwxY4XE56K-29" target="ASPx3OWDytFwxY4XE56K-33" edge="1">
          <mxGeometry relative="1" as="geometry">
            <mxPoint x="860" y="251" as="sourcePoint" />
            <mxPoint x="904" y="234" as="targetPoint" />
          </mxGeometry>
        </mxCell>
        <mxCell id="ASPx3OWDytFwxY4XE56K-54" value="" style="endArrow=none;html=1;rounded=0;" parent="1" source="ASPx3OWDytFwxY4XE56K-29" target="ASPx3OWDytFwxY4XE56K-23" edge="1">
          <mxGeometry relative="1" as="geometry">
            <mxPoint x="870" y="261" as="sourcePoint" />
            <mxPoint x="914" y="244" as="targetPoint" />
          </mxGeometry>
        </mxCell>
        <mxCell id="ASPx3OWDytFwxY4XE56K-55" value="" style="endArrow=none;html=1;rounded=0;" parent="1" source="ASPx3OWDytFwxY4XE56K-42" target="ASPx3OWDytFwxY4XE56K-29" edge="1">
          <mxGeometry relative="1" as="geometry">
            <mxPoint x="880" y="271" as="sourcePoint" />
            <mxPoint x="924" y="254" as="targetPoint" />
          </mxGeometry>
        </mxCell>
        <mxCell id="ASPx3OWDytFwxY4XE56K-56" value="" style="endArrow=none;html=1;rounded=0;" parent="1" source="ASPx3OWDytFwxY4XE56K-25" target="ASPx3OWDytFwxY4XE56K-31" edge="1">
          <mxGeometry relative="1" as="geometry">
            <mxPoint x="890" y="281" as="sourcePoint" />
            <mxPoint x="934" y="264" as="targetPoint" />
          </mxGeometry>
        </mxCell>
        <mxCell id="ASPx3OWDytFwxY4XE56K-59" value="" style="endArrow=none;html=1;rounded=0;" parent="1" source="ASPx3OWDytFwxY4XE56K-35" target="ASPx3OWDytFwxY4XE56K-14" edge="1">
          <mxGeometry relative="1" as="geometry">
            <mxPoint x="920" y="311" as="sourcePoint" />
            <mxPoint x="964" y="294" as="targetPoint" />
          </mxGeometry>
        </mxCell>
        <mxCell id="ASPx3OWDytFwxY4XE56K-60" value="" style="endArrow=none;html=1;rounded=0;" parent="1" source="ASPx3OWDytFwxY4XE56K-14" target="ASPx3OWDytFwxY4XE56K-22" edge="1">
          <mxGeometry relative="1" as="geometry">
            <mxPoint x="930" y="321" as="sourcePoint" />
            <mxPoint x="974" y="304" as="targetPoint" />
          </mxGeometry>
        </mxCell>
        <mxCell id="ASPx3OWDytFwxY4XE56K-61" value="" style="endArrow=none;html=1;rounded=0;" parent="1" source="ASPx3OWDytFwxY4XE56K-14" target="ASPx3OWDytFwxY4XE56K-32" edge="1">
          <mxGeometry relative="1" as="geometry">
            <mxPoint x="196" y="317" as="sourcePoint" />
            <mxPoint x="240" y="300" as="targetPoint" />
          </mxGeometry>
        </mxCell>
        <mxCell id="ASPx3OWDytFwxY4XE56K-62" value="" style="endArrow=none;html=1;rounded=0;" parent="1" source="ASPx3OWDytFwxY4XE56K-15" target="ASPx3OWDytFwxY4XE56K-14" edge="1">
          <mxGeometry relative="1" as="geometry">
            <mxPoint x="66" y="420" as="sourcePoint" />
            <mxPoint x="110" y="403" as="targetPoint" />
          </mxGeometry>
        </mxCell>
        <mxCell id="ASPx3OWDytFwxY4XE56K-67" value="" style="endArrow=none;html=1;rounded=0;" parent="1" source="ASPx3OWDytFwxY4XE56K-14" target="ASPx3OWDytFwxY4XE56K-26" edge="1">
          <mxGeometry relative="1" as="geometry">
            <mxPoint x="250" y="340" as="sourcePoint" />
            <mxPoint x="410" y="340" as="targetPoint" />
          </mxGeometry>
        </mxCell>
        <mxCell id="ASPx3OWDytFwxY4XE56K-68" value="1" style="resizable=0;html=1;whiteSpace=wrap;align=left;verticalAlign=bottom;" parent="ASPx3OWDytFwxY4XE56K-67" connectable="0" vertex="1">
          <mxGeometry x="-1" relative="1" as="geometry" />
        </mxCell>
        <mxCell id="ASPx3OWDytFwxY4XE56K-69" value="" style="resizable=0;html=1;whiteSpace=wrap;align=right;verticalAlign=bottom;" parent="ASPx3OWDytFwxY4XE56K-67" connectable="0" vertex="1">
          <mxGeometry x="1" relative="1" as="geometry" />
        </mxCell>
        <mxCell id="ASPx3OWDytFwxY4XE56K-70" value="" style="endArrow=none;html=1;rounded=0;" parent="1" source="ASPx3OWDytFwxY4XE56K-26" target="ASPx3OWDytFwxY4XE56K-25" edge="1">
          <mxGeometry relative="1" as="geometry">
            <mxPoint x="354" y="300" as="sourcePoint" />
            <mxPoint x="414" y="300" as="targetPoint" />
          </mxGeometry>
        </mxCell>
        <mxCell id="ASPx3OWDytFwxY4XE56K-71" value="" style="resizable=0;html=1;whiteSpace=wrap;align=left;verticalAlign=bottom;" parent="ASPx3OWDytFwxY4XE56K-70" connectable="0" vertex="1">
          <mxGeometry x="-1" relative="1" as="geometry" />
        </mxCell>
        <mxCell id="ASPx3OWDytFwxY4XE56K-72" value="N" style="resizable=0;html=1;whiteSpace=wrap;align=right;verticalAlign=bottom;" parent="ASPx3OWDytFwxY4XE56K-70" connectable="0" vertex="1">
          <mxGeometry x="1" relative="1" as="geometry">
            <mxPoint x="-10" as="offset" />
          </mxGeometry>
        </mxCell>
        <mxCell id="ASPx3OWDytFwxY4XE56K-73" value="" style="endArrow=none;html=1;rounded=0;" parent="1" source="ASPx3OWDytFwxY4XE56K-16" target="ASPx3OWDytFwxY4XE56K-25" edge="1">
          <mxGeometry relative="1" as="geometry">
            <mxPoint x="710" y="491" as="sourcePoint" />
            <mxPoint x="710" y="420" as="targetPoint" />
          </mxGeometry>
        </mxCell>
        <mxCell id="ASPx3OWDytFwxY4XE56K-74" value="" style="resizable=0;html=1;whiteSpace=wrap;align=left;verticalAlign=bottom;" parent="ASPx3OWDytFwxY4XE56K-73" connectable="0" vertex="1">
          <mxGeometry x="-1" relative="1" as="geometry" />
        </mxCell>
        <mxCell id="ASPx3OWDytFwxY4XE56K-75" value="N" style="resizable=0;html=1;whiteSpace=wrap;align=right;verticalAlign=bottom;" parent="ASPx3OWDytFwxY4XE56K-73" connectable="0" vertex="1">
          <mxGeometry x="1" relative="1" as="geometry">
            <mxPoint y="-10" as="offset" />
          </mxGeometry>
        </mxCell>
        <mxCell id="ASPx3OWDytFwxY4XE56K-76" value="" style="triangle;whiteSpace=wrap;html=1;rotation=90;textDirection=vertical-rl;" parent="1" vertex="1">
          <mxGeometry x="600" y="220" width="60" height="80" as="geometry" />
        </mxCell>
        <mxCell id="ASPx3OWDytFwxY4XE56K-77" value="" style="endArrow=none;html=1;rounded=0;" parent="1" source="ASPx3OWDytFwxY4XE56K-78" target="ASPx3OWDytFwxY4XE56K-25" edge="1">
          <mxGeometry relative="1" as="geometry">
            <mxPoint x="310" y="130" as="sourcePoint" />
            <mxPoint x="420" y="140" as="targetPoint" />
          </mxGeometry>
        </mxCell>
        <mxCell id="ASPx3OWDytFwxY4XE56K-78" value="fecha" style="ellipse;whiteSpace=wrap;html=1;align=center;" parent="1" vertex="1">
          <mxGeometry x="314" y="330" width="100" height="40" as="geometry" />
        </mxCell>
        <mxCell id="ASPx3OWDytFwxY4XE56K-79" value="cantidad" style="ellipse;whiteSpace=wrap;html=1;align=center;" parent="1" vertex="1">
          <mxGeometry x="290" y="80" width="100" height="40" as="geometry" />
        </mxCell>
        <mxCell id="ASPx3OWDytFwxY4XE56K-80" value="" style="endArrow=none;html=1;rounded=0;" parent="1" source="ASPx3OWDytFwxY4XE56K-79" target="ASPx3OWDytFwxY4XE56K-16" edge="1">
          <mxGeometry relative="1" as="geometry">
            <mxPoint x="345" y="168" as="sourcePoint" />
            <mxPoint x="416" y="182" as="targetPoint" />
          </mxGeometry>
        </mxCell>
        <mxCell id="ASPx3OWDytFwxY4XE56K-83" value="" style="endArrow=none;html=1;rounded=0;" parent="1" source="ASPx3OWDytFwxY4XE56K-16" target="ASPx3OWDytFwxY4XE56K-29" edge="1">
          <mxGeometry relative="1" as="geometry">
            <mxPoint x="460" y="230" as="sourcePoint" />
            <mxPoint x="460" y="270" as="targetPoint" />
          </mxGeometry>
        </mxCell>
        <mxCell id="ASPx3OWDytFwxY4XE56K-84" value="" style="resizable=0;html=1;whiteSpace=wrap;align=left;verticalAlign=bottom;" parent="ASPx3OWDytFwxY4XE56K-83" connectable="0" vertex="1">
          <mxGeometry x="-1" relative="1" as="geometry" />
        </mxCell>
        <mxCell id="ASPx3OWDytFwxY4XE56K-85" value="M" style="resizable=0;html=1;whiteSpace=wrap;align=right;verticalAlign=bottom;" parent="ASPx3OWDytFwxY4XE56K-83" connectable="0" vertex="1">
          <mxGeometry x="1" relative="1" as="geometry">
            <mxPoint x="-10" as="offset" />
          </mxGeometry>
        </mxCell>
        <mxCell id="ASPx3OWDytFwxY4XE56K-88" value="correo" style="ellipse;whiteSpace=wrap;html=1;align=center;" parent="1" vertex="1">
          <mxGeometry x="90" y="360" width="100" height="40" as="geometry" />
        </mxCell>
        <mxCell id="ASPx3OWDytFwxY4XE56K-89" value="" style="endArrow=none;html=1;rounded=0;" parent="1" source="ASPx3OWDytFwxY4XE56K-14" target="ASPx3OWDytFwxY4XE56K-88" edge="1">
          <mxGeometry relative="1" as="geometry">
            <mxPoint x="153" y="310" as="sourcePoint" />
            <mxPoint x="167" y="331" as="targetPoint" />
          </mxGeometry>
        </mxCell>
        <mxCell id="ASPx3OWDytFwxY4XE56K-90" value="modelo" style="ellipse;whiteSpace=wrap;html=1;align=center;fontStyle=4;" parent="1" vertex="1">
          <mxGeometry x="450" y="460" width="100" height="40" as="geometry" />
        </mxCell>
        <mxCell id="ASPx3OWDytFwxY4XE56K-91" value="&lt;div&gt;GPU&lt;/div&gt;" style="whiteSpace=wrap;html=1;align=center;" parent="1" vertex="1">
          <mxGeometry x="580" y="340" width="100" height="40" as="geometry" />
        </mxCell>
        <mxCell id="ASPx3OWDytFwxY4XE56K-92" value="fabricante" style="ellipse;whiteSpace=wrap;html=1;align=center;" parent="1" vertex="1">
          <mxGeometry x="710" y="430" width="100" height="40" as="geometry" />
        </mxCell>
        <mxCell id="ASPx3OWDytFwxY4XE56K-93" value="marca" style="ellipse;whiteSpace=wrap;html=1;align=center;" parent="1" vertex="1">
          <mxGeometry x="640" y="470" width="100" height="40" as="geometry" />
        </mxCell>
        <mxCell id="ASPx3OWDytFwxY4XE56K-94" value="vram" style="ellipse;whiteSpace=wrap;html=1;align=center;" parent="1" vertex="1">
          <mxGeometry x="700" y="370" width="100" height="40" as="geometry" />
        </mxCell>
        <mxCell id="ASPx3OWDytFwxY4XE56K-95" value="velocidad" style="ellipse;whiteSpace=wrap;html=1;align=center;" parent="1" vertex="1">
          <mxGeometry x="430" y="410" width="100" height="40" as="geometry" />
        </mxCell>
        <mxCell id="ASPx3OWDytFwxY4XE56K-96" value="raytracing" style="ellipse;whiteSpace=wrap;html=1;align=center;" parent="1" vertex="1">
          <mxGeometry x="540" y="480" width="100" height="40" as="geometry" />
        </mxCell>
        <mxCell id="ASPx3OWDytFwxY4XE56K-97" value="" style="endArrow=none;html=1;rounded=0;" parent="1" source="ASPx3OWDytFwxY4XE56K-91" target="ASPx3OWDytFwxY4XE56K-94" edge="1">
          <mxGeometry relative="1" as="geometry">
            <mxPoint x="750" y="420" as="sourcePoint" />
            <mxPoint x="910" y="420" as="targetPoint" />
          </mxGeometry>
        </mxCell>
        <mxCell id="ASPx3OWDytFwxY4XE56K-98" value="" style="endArrow=none;html=1;rounded=0;" parent="1" source="ASPx3OWDytFwxY4XE56K-91" target="ASPx3OWDytFwxY4XE56K-95" edge="1">
          <mxGeometry relative="1" as="geometry">
            <mxPoint x="680" y="411" as="sourcePoint" />
            <mxPoint x="724" y="394" as="targetPoint" />
          </mxGeometry>
        </mxCell>
        <mxCell id="ASPx3OWDytFwxY4XE56K-99" value="" style="endArrow=none;html=1;rounded=0;" parent="1" source="ASPx3OWDytFwxY4XE56K-91" target="ASPx3OWDytFwxY4XE56K-93" edge="1">
          <mxGeometry relative="1" as="geometry">
            <mxPoint x="690" y="421" as="sourcePoint" />
            <mxPoint x="734" y="404" as="targetPoint" />
          </mxGeometry>
        </mxCell>
        <mxCell id="ASPx3OWDytFwxY4XE56K-100" value="" style="endArrow=none;html=1;rounded=0;" parent="1" source="ASPx3OWDytFwxY4XE56K-91" target="ASPx3OWDytFwxY4XE56K-90" edge="1">
          <mxGeometry relative="1" as="geometry">
            <mxPoint x="700" y="431" as="sourcePoint" />
            <mxPoint x="744" y="414" as="targetPoint" />
          </mxGeometry>
        </mxCell>
        <mxCell id="ASPx3OWDytFwxY4XE56K-101" value="" style="endArrow=none;html=1;rounded=0;" parent="1" source="ASPx3OWDytFwxY4XE56K-91" target="ASPx3OWDytFwxY4XE56K-96" edge="1">
          <mxGeometry relative="1" as="geometry">
            <mxPoint x="710" y="441" as="sourcePoint" />
            <mxPoint x="754" y="424" as="targetPoint" />
          </mxGeometry>
        </mxCell>
        <mxCell id="ASPx3OWDytFwxY4XE56K-102" value="" style="endArrow=none;html=1;rounded=0;" parent="1" source="ASPx3OWDytFwxY4XE56K-91" target="ASPx3OWDytFwxY4XE56K-92" edge="1">
          <mxGeometry relative="1" as="geometry">
            <mxPoint x="720" y="451" as="sourcePoint" />
            <mxPoint x="764" y="434" as="targetPoint" />
          </mxGeometry>
        </mxCell>
        <mxCell id="ASPx3OWDytFwxY4XE56K-105" value="" style="endArrow=none;html=1;rounded=0;" parent="1" source="ASPx3OWDytFwxY4XE56K-76" target="ASPx3OWDytFwxY4XE56K-29" edge="1">
          <mxGeometry relative="1" as="geometry">
            <mxPoint x="660" y="200" as="sourcePoint" />
            <mxPoint x="820" y="200" as="targetPoint" />
          </mxGeometry>
        </mxCell>
        <mxCell id="ASPx3OWDytFwxY4XE56K-106" value="1" style="resizable=0;html=1;whiteSpace=wrap;align=right;verticalAlign=bottom;" parent="ASPx3OWDytFwxY4XE56K-105" connectable="0" vertex="1">
          <mxGeometry x="1" relative="1" as="geometry">
            <mxPoint y="20" as="offset" />
          </mxGeometry>
        </mxCell>
        <mxCell id="ASPx3OWDytFwxY4XE56K-108" value="" style="endArrow=none;html=1;rounded=0;" parent="1" source="ASPx3OWDytFwxY4XE56K-76" target="ASPx3OWDytFwxY4XE56K-91" edge="1">
          <mxGeometry relative="1" as="geometry">
            <mxPoint x="620.3333016262659" y="286.05504756060134" as="sourcePoint" />
            <mxPoint x="639.6700000000001" y="390" as="targetPoint" />
          </mxGeometry>
        </mxCell>
        <mxCell id="ASPx3OWDytFwxY4XE56K-109" value="1" style="resizable=0;html=1;whiteSpace=wrap;align=right;verticalAlign=bottom;" parent="ASPx3OWDytFwxY4XE56K-108" connectable="0" vertex="1">
          <mxGeometry x="1" relative="1" as="geometry">
            <mxPoint x="10" as="offset" />
          </mxGeometry>
        </mxCell>
        <mxCell id="tpc48FbEabItcqHVrE8z-1" value="direccion" style="ellipse;whiteSpace=wrap;html=1;align=center;" vertex="1" parent="1">
          <mxGeometry x="180" y="190" width="100" height="40" as="geometry" />
        </mxCell>
        <mxCell id="tpc48FbEabItcqHVrE8z-2" value="" style="endArrow=none;html=1;rounded=0;" edge="1" parent="1" source="ASPx3OWDytFwxY4XE56K-14" target="tpc48FbEabItcqHVrE8z-1">
          <mxGeometry relative="1" as="geometry">
            <mxPoint x="170" y="310" as="sourcePoint" />
            <mxPoint x="204" y="333" as="targetPoint" />
          </mxGeometry>
        </mxCell>
      </root>
    </mxGraphModel>
  </diagram>
</mxfile>
